<?xml version="1.0"?>
<svg xmlns="http://www.w3.org/2000/svg" id="Outline" viewBox="0 0 512 512" width="512" height="512"><path d="M488,80H464V56a24.027,24.027,0,0,0-24-24H392a24.027,24.027,0,0,0-24,24V72H328a23.943,23.943,0,0,0-17.869,8H201.869A23.943,23.943,0,0,0,184,72H144V56a24.027,24.027,0,0,0-24-24H72A24.027,24.027,0,0,0,48,56V80H24a8,8,0,0,0-8,8v32a8,8,0,0,0,8,8H48v24a24.027,24.027,0,0,0,24,24h48a23.889,23.889,0,0,0,8-1.376V224a8.034,8.034,0,0,0,.19,1.735l5.321,23.941c0,.02,0,.04.01.06L144.2,297.773l40,176A8,8,0,0,0,192,480H328a8,8,0,0,0,7.871-6.569l31.972-175.847,10.636-47.848c0-.02.006-.04.01-.06l5.321-23.941A8.034,8.034,0,0,0,384,224V174.624A23.889,23.889,0,0,0,392,176h48a24.027,24.027,0,0,0,24-24V128h24a8,8,0,0,0,8-8V88A8,8,0,0,0,488,80ZM32,112V96H48v16Zm32,40V56a8.009,8.009,0,0,1,8-8h8V160H72A8.009,8.009,0,0,1,64,152Zm304,71.122L364.249,240H332.64l3.17-14.265a8.057,8.057,0,0,0,.162-1.07L343.361,136H368v87.122ZM286.33,288H280V263.978A39.962,39.962,0,0,0,296,232V191.972A39.789,39.789,0,0,0,304,168V152a8,8,0,0,0-8-8H248a40.045,40.045,0,0,0-40,40v16a8,8,0,0,0,8,8v24a39.962,39.962,0,0,0,16,31.978V288h-6.33a23.856,23.856,0,0,1-23.431-18.8l-5.1-22.939h0l-5.216-23.471-7.234-86.812A23.941,23.941,0,0,0,201.869,128H310.131a23.941,23.941,0,0,0,17.176,7.982l-7.234,86.812-5.216,23.471h0l-5.1,22.941A23.854,23.854,0,0,1,286.33,288ZM272,304h6.629a24,24,0,0,1-45.258,0H240a8,8,0,0,0,8-8V271.2a40.154,40.154,0,0,0,16,0V296A8,8,0,0,0,272,304Zm16-136a24.027,24.027,0,0,1-24,24H224v-8a24.027,24.027,0,0,1,24-24h40Zm-24,40a39.759,39.759,0,0,0,16-3.35V232a24,24,0,0,1-48,0V208ZM144,223.122V136h24.639l7.389,88.665a8.057,8.057,0,0,0,.162,1.07L179.36,240H147.751ZM320,96a8.009,8.009,0,0,1,8-8h40v32H328a8.009,8.009,0,0,1-8-8Zm-16,0v16H208V96ZM184,88a8.009,8.009,0,0,1,8,8v16a8.009,8.009,0,0,1-8,8H144V88Zm-64,72H96V48h24a8.009,8.009,0,0,1,8,8v96A8.009,8.009,0,0,1,120,160ZM352.19,294.264c-.022.1-.043.2-.061.305L321.323,464H198.386L159.81,294.264,151.3,256h31.61l3.706,16.674a39.713,39.713,0,0,0,30,30.307,39.989,39.989,0,0,0,78.754,0,39.711,39.711,0,0,0,30-30.305L329.086,256H360.7ZM416,160H392a8.009,8.009,0,0,1-8-8V56a8.009,8.009,0,0,1,8-8h24Zm32-8a8.009,8.009,0,0,1-8,8h-8V48h8a8.009,8.009,0,0,1,8,8Zm32-40H464V96h16Z"/></svg>
